<?xml version="1.0" standalone="no"?>
<!DOCTYPE svg PUBLIC "-//W3C//DTD SVG 20010904//EN"
 "http://www.w3.org/TR/2001/REC-SVG-20010904/DTD/svg10.dtd">
<svg version="1.0" xmlns="http://www.w3.org/2000/svg"
 width="92.000000pt" height="92.000000pt" viewBox="0 0 92.000000 92.000000"
 preserveAspectRatio="xMidYMid meet">
<metadata>
Created by potrace 1.14, written by Peter Selinger 2001-2017
</metadata>
<g transform="translate(0.000000,92.000000) scale(0.100000,-0.100000)"
fill="#000000" stroke="none">
<path d="M307 771 c-7 -9 -19 -28 -27 -43 -11 -23 -20 -28 -49 -28 -153 -2
-199 -6 -214 -19 -15 -12 -17 -43 -17 -267 0 -248 0 -253 22 -268 33 -23 843
-23 876 0 22 15 22 18 22 268 0 228 -2 254 -17 269 -19 17 -20 17 -59 17 -18
0 -25 5 -23 18 4 39 -1 43 -38 40 -33 -3 -38 -7 -41 -30 -3 -25 -8 -28 -38
-28 -19 0 -37 -1 -41 -1 -5 -1 -17 17 -28 39 -24 51 -33 53 -193 50 -97 -1
-125 -5 -135 -17z"/>
</g>
</svg>
